<svg xmlns="http://www.w3.org/2000/svg" width="40" height="40" viewBox="0 0 40 40">
    <g fill="none" fill-rule="nonzero">
        <path fill="#0495E2" d="M24.328 19.704a6.954 6.954 0 0 0-1.682-.79 22.13 22.13 0 0 0-2.174-.586c-.455-.105-.908-.22-1.358-.344a4.062 4.062 0 0 1-.792-.316 1.78 1.78 0 0 1-.586-.458.92.92 0 0 1-.196-.59c0-.376.2-.692.61-.968.424-.286.998-.43 1.702-.43.76 0 1.312.128 1.642.386.34.266.636.644.88 1.124.212.376.402.636.588.8.198.18.482.274.846.274.402 0 .74-.144 1.01-.434.257-.26.402-.61.404-.976 0-.376-.106-.766-.308-1.152a3.624 3.624 0 0 0-.954-1.106 4.972 4.972 0 0 0-1.622-.832 7.54 7.54 0 0 0-2.294-.312c-1.1 0-2.07.156-2.886.468-.826.316-1.468.776-1.908 1.366a3.34 3.34 0 0 0-.668 2.046c0 .8.214 1.48.636 2.024.414.536.984.964 1.688 1.274.692.3 1.556.566 2.578.792.748.16 1.356.316 1.802.46.428.136.782.336 1.05.594.257.252.395.602.378.962 0 .504-.238.914-.726 1.262-.502.352-1.168.528-1.98.528-.592 0-1.07-.086-1.428-.262a2.194 2.194 0 0 1-.824-.652 5.128 5.128 0 0 1-.564-1.032 2.326 2.326 0 0 0-.578-.868 1.26 1.26 0 0 0-.864-.308c-.38-.012-.75.128-1.028.39a1.296 1.296 0 0 0-.41.958c0 .59.212 1.208.63 1.824a4.609 4.609 0 0 0 1.62 1.48c.924.504 2.108.758 3.52.758 1.176 0 2.208-.188 3.072-.554.87-.372 1.542-.898 1.996-1.558a3.92 3.92 0 0 0 .688-2.258c0-.696-.134-1.296-.4-1.782a3.432 3.432 0 0 0-1.11-1.202zM20 .8C9.396.8.8 9.396.8 20S9.396 39.2 20 39.2 39.2 30.604 39.2 20 30.604.8 20 .8zm4.602 29.95c-.974 0-1.892-.25-2.696-.696a9.36 9.36 0 0 1-1.8.172c-5.426 0-9.828-4.532-9.828-10.114 0-.7.07-1.38.2-2.036a5.934 5.934 0 0 1-.784-2.962c0-3.238 2.552-5.868 5.702-5.868 1.114 0 2.152.332 3.032.902A9.486 9.486 0 0 1 20.106 10c5.43 0 9.83 4.528 9.83 10.114 0 .742-.078 1.468-.226 2.168.378.786.592 1.668.592 2.606-.002 3.236-2.552 5.862-5.7 5.862z"/>
        <path d="M0 0h40v40H0z"/>
    </g>
</svg>
