<svg xmlns="http://www.w3.org/2000/svg" width="40" height="40" viewBox="0 0 40 40">
    <g fill="none" fill-rule="nonzero">
        <path fill="#000" d="M20.03 19.898h-.06c-2.382 0-4.48-.606-5.722.536a3.14 3.14 0 0 0-1.054 2.394c0 3.704 2.966 4.16 6.778 4.16h.058c3.81 0 6.778-.458 6.778-4.16 0-.886-.312-1.712-1.054-2.394-1.244-1.142-3.342-.536-5.724-.536zm-3.244 5.062c-.726 0-1.312-.816-1.312-1.82s.586-1.816 1.312-1.816c.726 0 1.314.812 1.314 1.816.002 1.004-.586 1.82-1.314 1.82zm6.426 0c-.726 0-1.314-.816-1.314-1.82s.588-1.816 1.314-1.816c.724 0 1.312.812 1.312 1.816.002 1.004-.586 1.82-1.312 1.82zM20 .8C9.396.8.8 9.396.8 20S9.396 39.2 20 39.2 39.2 30.604 39.2 20 30.604.8 20 .8zm1.752 27.078c-.344 0-1.028 0-1.752.004-.724-.004-1.408-.004-1.752-.004-1.52 0-7.544-.118-7.544-7.378 0-1.668.572-2.89 1.51-3.91-.148-.368-.156-2.464.64-4.472 0 0 1.832.2 4.602 2.102.578-.162 1.562-.244 2.544-.244s1.964.082 2.546.242c2.77-1.902 4.602-2.102 4.602-2.102.796 2.008.79 4.106.64 4.472.938 1.02 1.51 2.242 1.51 3.91-.002 7.264-6.026 7.38-7.546 7.38z"/>
        <path d="M0 0h40v40H0z"/>
    </g>
</svg>
